<svg width="17" height="20" viewBox="0 0 17 20" xmlns="http://www.w3.org/2000/svg"><title>apple</title><path d="M12.159 4.91c2.19 0 3.59 2.118 3.59 2.118s-2.136 1.159-2.136 3.676c0 2.988 2.683 3.857 2.683 3.857s-2.118 5.026-4.496 5.026c-1.338 0-1.427-.77-3.204-.77-1.544 0-2.064.77-3.24.77-2.244 0-5.142-4.899-5.142-8.883 0-4.138 2.934-5.795 4.774-5.795 1.616 0 2.289.95 3.59.95 1.095 0 1.957-.95 3.58-.95zM11.782.69c.323 2.028-1.517 4.536-3.715 4.455-.324-2.581 2.046-4.32 3.715-4.456z" fill="#23231E" fill-rule="evenodd" opacity=".6"/></svg>