<svg id="mediapark" xmlns="http://www.w3.org/2000/svg" xmlns:xlink="http://www.w3.org/1999/xlink" width="402.22" height="90" viewBox="0 0 402.22 90">
  <defs>
    <style>
      .cls-1, .cls-2 {
        fill-rule: evenodd;
      }

      .cls-1 {
        fill: url(#linear-gradient);
      }

      .cls-2 {
        fill: url(#linear-gradient-2);
      }
    </style>
    <linearGradient id="linear-gradient" x1="1031.302" y1="1365.84" x2="875.418" y2="1455.84" gradientUnits="userSpaceOnUse">
      <stop offset="0" stop-color="#e72f3a"/>
      <stop offset="1" stop-color="#f49910"/>
    </linearGradient>
    <linearGradient id="linear-gradient-2" x1="812.259" y1="1365.84" x2="688.522" y2="1437.28" gradientUnits="userSpaceOnUse">
      <stop offset="0" stop-color="#3c443a"/>
      <stop offset="1" stop-color="#3c443a"/>
    </linearGradient>
  </defs>
  <path id="park" class="cls-1" d="M869.884,1455.83h12.057v-24.97h0.2c2.45,3.86,7.45,6.44,13.429,6.44,10.88,0,21.761-8.43,21.761-25.87,0-15.06-9.116-24.58-20.1-24.58-7.253,0-12.841,3.08-16.369,8.53h-0.2l-0.589-7.44H869.492c0.2,4.56.392,9.72,0.392,16.06v51.83Zm12.057-47.27a16.458,16.458,0,0,1,.392-3.07,11.449,11.449,0,0,1,10.88-9.02c7.744,0,11.861,6.93,11.861,15.46,0,9.51-4.509,15.95-12.155,15.95a11.041,11.041,0,0,1-10.684-8.52,18.735,18.735,0,0,1-.294-3.37v-7.43Zm76.65-1.29c0-10.6-4.411-20.42-19.7-20.42-7.547,0-13.723,2.09-17.252,4.27l2.353,7.92a25.085,25.085,0,0,1,12.841-3.56c8.43,0,9.7,5.25,9.7,8.42v0.79c-17.644-.1-28.328,6.15-28.328,18.24,0,7.33,5.391,14.37,15,14.37,6.273,0,11.272-2.68,14.115-6.44h0.294l0.882,5.35h10.881a65.926,65.926,0,0,1-.784-11.6v-17.34Zm-11.763,11.99a8.375,8.375,0,0,1-.294,2.68,9.918,9.918,0,0,1-9.508,6.64c-3.823,0-6.862-2.18-6.862-6.94,0-7.33,8.136-9.12,16.664-9.02v6.64Zm16.733,16.95h12.056v-25.08a21.353,21.353,0,0,1,.294-3.66c1.079-5.55,5.1-9.22,10.783-9.22a19,19,0,0,1,3.627.3v-11.4a12.435,12.435,0,0,0-2.843-.3c-5.195,0-10.782,3.47-13.135,10.21h-0.294l-0.49-9.12h-10.39c0.294,4.27.392,9.02,0.392,15.56v32.71Zm41.119-70.36H992.627v70.36h12.053v-16.45l4.02-4.86,13.73,21.31h14.8l-20.2-28.54,17.75-19.73h-14.51l-11.67,15.56c-1.17,1.69-2.54,3.77-3.72,5.65h-0.2v-43.3Z" transform="translate(-635 -1365.84)"/>
  <path id="media" class="cls-2" d="M635.4,1436.21h11.763v-28.54a14.087,14.087,0,0,1,.588-4.07c1.176-3.27,4.215-6.84,8.724-6.84,5.587,0,8.234,4.76,8.234,11.5v27.95h11.762v-28.94a13.073,13.073,0,0,1,.588-4.06c1.275-3.47,4.313-6.45,8.43-6.45,5.783,0,8.528,4.76,8.528,12.79v26.66h11.763v-28.45c0-15.46-8.038-20.91-15.88-20.91a16.452,16.452,0,0,0-9.8,2.88,18.992,18.992,0,0,0-5.783,6.04h-0.2a13.767,13.767,0,0,0-13.233-8.92,16.232,16.232,0,0,0-14.7,8.23H645.89l-0.588-7.14H635.01c0.2,4.17.392,8.82,0.392,14.37v33.9Zm117.709-20.72a30.274,30.274,0,0,0,.392-5.15c0-10.6-5.1-23.49-20.585-23.49-15.291,0-23.329,12.59-23.329,25.97,0,14.76,9.116,24.38,24.6,24.38a42.535,42.535,0,0,0,16.664-3.07l-1.764-8.33a38.039,38.039,0,0,1-13.233,2.18c-7.744,0-14.409-3.76-14.7-12.49h31.956Zm-31.956-8.52c0.491-4.95,3.627-11.79,11.077-11.79,8.038,0,10,7.33,9.9,11.79H721.155Zm68.263-41.12v27.25h-0.2c-2.157-3.57-6.862-6.25-13.429-6.25-11.469,0-21.467,9.62-21.369,25.77,0,14.87,9.018,24.68,20.487,24.68,6.861,0,12.644-3.37,15.487-8.72h0.2l0.588,7.63h10.685c-0.2-3.27-.393-8.63-0.393-13.58v-56.78H789.418Zm0,49.45a13.7,13.7,0,0,1-.392,3.56,10.664,10.664,0,0,1-10.391,8.63c-7.645,0-11.958-6.45-11.958-15.36s4.313-15.86,12.056-15.86a10.6,10.6,0,0,1,10.391,8.52,18.442,18.442,0,0,1,.294,3.27v7.24Zm31.329,20.91v-48.27H808.691v48.27h12.056Zm-5.979-68.38a6.594,6.594,0,1,0,6.763,6.64A6.47,6.47,0,0,0,814.768,1367.83Zm50.239,39.44c0-10.6-4.411-20.42-19.7-20.42-7.547,0-13.723,2.09-17.252,4.27l2.353,7.92a25.085,25.085,0,0,1,12.841-3.56c8.43,0,9.7,5.25,9.7,8.42v0.79c-17.644-.1-28.328,6.15-28.328,18.24,0,7.33,5.391,14.37,15,14.37,6.273,0,11.272-2.68,14.115-6.44h0.294l0.882,5.35h10.881a65.926,65.926,0,0,1-.784-11.6v-17.34Zm-11.763,11.99a8.375,8.375,0,0,1-.294,2.68,9.918,9.918,0,0,1-9.508,6.64c-3.823,0-6.862-2.18-6.862-6.94,0-7.33,8.136-9.12,16.664-9.02v6.64Z" transform="translate(-635 -1365.84)"/>
</svg>
