<svg xmlns="http://www.w3.org/2000/svg" width="9.25" height="5.85" viewBox="0 0 9.25 5.85">
  <defs>
    <style>
      .cls-1 {
        fill: #e42248;
        fill-rule: evenodd;
      }
    </style>
  </defs>
  <path id="ARROW_копия_7" data-name="ARROW копия 7" class="cls-1" d="M1176.18,4603.75l-3.57-2.68a0.249,0.249,0,0,0-.26-0.04,0.229,0.229,0,0,0-.15.23v1.71h-4.96a0.239,0.239,0,0,0-.24.24v1.47a0.239,0.239,0,0,0,.24.25h4.96v1.71a0.225,0.225,0,0,0,.15.22,0.23,0.23,0,0,0,.26-0.04l3.57-2.71A0.243,0.243,0,0,0,1176.18,4603.75Z" transform="translate(-1167 -4601.03)"/>
</svg>
