<svg id="Бизнес_анализ" data-name="Бизнес анализ" xmlns="http://www.w3.org/2000/svg" width="40" height="40" viewBox="0 0 40 40">
  <defs>
    <style>
      .cls-1 {
        fill: #d6d6d4;
      }

      .cls-1, .cls-2 {
        fill-rule: evenodd;
      }

      .cls-2 {
        fill: #f3654e;
      }
    </style>
  </defs>
  <path id="PIECHART" class="cls-1" d="M20.18,6.631a18.184,18.184,0,1,0,18.18,18.184,1,1,0,0,0-1.006-1.006H21.178V7.638A1,1,0,0,0,20.18,6.631ZM19.174,24.816a1,1,0,0,0,1.006,1.006H36.324A16.176,16.176,0,1,1,19.174,8.669V24.816h0Z" transform="translate(-2 -3)"/>
  <path id="PIECHART_копия" data-name="PIECHART копия" class="cls-2" d="M24.359,4v15.64a1,1,0,0,0,1.006,1.006H40.994A1,1,0,0,0,42,19.638,16.65,16.65,0,0,0,25.365,3,1,1,0,0,0,24.359,4Zm15.6,14.634H26.363V5.036A14.646,14.646,0,0,1,39.955,18.631Z" transform="translate(-2 -3)"/>
</svg>
