<svg id="Разработка_iOS_Android_WP_приложений" data-name="Разработка iOS/ Android/ WP приложений" xmlns="http://www.w3.org/2000/svg" width="47" height="47" viewBox="0 0 47 47">
  <defs>
    <style>
      .cls-1 {
        fill: #d6d6d4;
      }

      .cls-1, .cls-2 {
        fill-rule: evenodd;
      }

      .cls-2 {
        fill: #f3654e;
      }
    </style>
  </defs>
  <path class="cls-1" d="M52,495.267v-7.534l-5.5-.918a18.431,18.431,0,0,0-1.963-4.724l3.246-4.545-5.328-5.326-4.545,3.246a18.379,18.379,0,0,0-4.724-1.963L32.267,468H24.733l-0.917,5.5a18.378,18.378,0,0,0-4.724,1.963l-4.545-3.246-5.328,5.326,3.246,4.545a18.43,18.43,0,0,0-1.963,4.724l-5.5.918v7.534l5.5,0.917a18.422,18.422,0,0,0,1.963,4.725l-3.246,4.545,5.328,5.326,4.545-3.246a18.378,18.378,0,0,0,4.724,1.963l0.917,5.5h7.534l0.917-5.5a18.379,18.379,0,0,0,4.724-1.963l4.545,3.246,5.328-5.326-3.246-4.545a18.423,18.423,0,0,0,1.963-4.725Zm-7.26-.153a16.5,16.5,0,0,1-2.206,5.31l-0.355.558,3.043,4.26-2.981,2.981-4.261-3.043-0.557.354a16.5,16.5,0,0,1-5.311,2.206l-0.645.144-0.86,5.158H26.392l-0.86-5.158-0.645-.144a16.5,16.5,0,0,1-5.311-2.206l-0.557-.354-4.261,3.043-2.981-2.981,3.043-4.26-0.355-.558a16.5,16.5,0,0,1-2.205-5.31l-0.143-.646-5.158-.86v-4.216l5.158-.86,0.143-.646a16.493,16.493,0,0,1,2.205-5.31l0.355-.558-3.043-4.26,2.981-2.981,4.261,3.043,0.557-.354a16.5,16.5,0,0,1,5.311-2.206l0.645-.144,0.86-5.158h4.216l0.86,5.158,0.645,0.144a16.5,16.5,0,0,1,5.311,2.206l0.557,0.354,4.261-3.043,2.981,2.981-3.043,4.26,0.355,0.558a16.49,16.49,0,0,1,2.206,5.31l0.143,0.646,5.158,0.86v4.216l-5.158.86Z" transform="translate(-5 -468)"/>
  <path id="Shape_1_копия_2" data-name="Shape 1 копия 2" class="cls-2" d="M28.5,481.953a9.547,9.547,0,1,0,9.547,9.547A9.558,9.558,0,0,0,28.5,481.953Zm0,17.087a7.54,7.54,0,1,1,7.539-7.54A7.549,7.549,0,0,1,28.5,499.04Z" transform="translate(-5 -468)"/>
</svg>
