<svg id="Разработка_тех._задания" data-name="Разработка тех. задания" xmlns="http://www.w3.org/2000/svg" width="38" height="40" viewBox="0 0 38 40">
  <defs>
    <style>
      .cls-1 {
        fill: #d6d6d4;
      }

      .cls-1, .cls-2 {
        fill-rule: evenodd;
      }

      .cls-2 {
        fill: #f3654e;
      }
    </style>
  </defs>
  <path id="TZ" class="cls-1" d="M31,142H7v2H31v-2m0,6H7v2H31v-2m-16,6H7v2h8v-2M3,171a1,1,0,0,1-1-1V141H36v29A1.009,1.009,0,0,1,35,171H3M2,141v-4.994A1.009,1.009,0,0,1,3,135H35a1,1,0,0,1,1,1.006V141H2m33.006-8H3a2.936,2.936,0,0,0-1,.186,3,3,0,0,0-2,2.82v33.989a3,3,0,0,0,2.994,3H35a3.047,3.047,0,0,0,3-3V136.005A3,3,0,0,0,35.006,133" transform="translate(0 -133)"/>
  <path id="TZ_копия" data-name="TZ копия" class="cls-2" d="M30,159a1,1,0,0,0-.707.293L27,161.583l-2.006,2L22.707,161.3a1,1,0,0,0-1.414,1.415l2.994,2.99a1,1,0,0,0,1.414,0l1.3-1.3,3.707-3.7A1,1,0,0,0,30,159" transform="translate(0 -133)"/>
</svg>
