<svg id="Разработка_интеректианого_прототипа" data-name="Разработка интеректианого прототипа" xmlns="http://www.w3.org/2000/svg" width="33.969" height="55" viewBox="0 0 33.969 55">
  <defs>
    <style>
      .cls-1 {
        fill: #d6d6d4;
      }

      .cls-1, .cls-2 {
        fill-rule: evenodd;
      }

      .cls-2 {
        fill: #f3654e;
      }
    </style>
  </defs>
  <path class="cls-1" d="M41.543,413.768c-1.386,0-1.652.508-2.616,1.342-0.773-2.026-1.774-3.472-4.115-3.472-1.386,0-1.652.507-2.616,1.341-0.773-2.025-1.774-3.472-4.115-3.472-1.228,0-1.361.4-2.274,1.068v-5.726c0-2.937-1.448-5.327-4.457-5.327s-4.457,2.39-4.457,5.327v12.418a5.369,5.369,0,0,0-4.365,5.219v6.392c0,10.334,5.924,15.981,16.433,17.115a0.993,0.993,0,0,0,.121.007,1.064,1.064,0,0,0,.119-2.124c-9.4-1.015-14.49-5.752-14.49-15v-6.392a3.207,3.207,0,0,1,2.183-3.012v7.273a1.092,1.092,0,0,0,2.183,0v-21.9c0-1.762.469-3.2,2.274-3.2s2.274,1.434,2.274,3.2v13.376a1.092,1.092,0,0,0,2.183,0v-3.391c0-1.763.469-3.2,2.274-3.2s2.274,1.433,2.274,3.2v3.391a1.092,1.092,0,0,0,2.183,0v-1.261c0-1.762.469-3.2,2.274-3.2s2.274,1.434,2.274,3.2v1.261a1.092,1.092,0,0,0,2.183,0v0.87c0-1.762.469-3.2,2.274-3.2s2.274,1.434,2.274,3.2v9.783c0,9.246-4.089,13.983-13.49,15A1.064,1.064,0,0,0,30.446,446a0.993,0.993,0,0,0,.121-0.007C41.075,444.859,46,439.212,46,428.878V419.1C46,416.158,44.552,413.768,41.543,413.768Z" transform="translate(-12.031 -391)"/>
  <path id="Shape_1_копия" data-name="Shape 1 копия" class="cls-2" d="M21.351,391a1.079,1.079,0,0,0-1.091,1.065v4.261a1.092,1.092,0,0,0,2.183,0v-4.261A1.079,1.079,0,0,0,21.351,391Zm-4.4,7.615L13.862,395.6a1.11,1.11,0,0,0-1.543,0,1.048,1.048,0,0,0,0,1.507l3.087,3.013a1.11,1.11,0,0,0,1.543,0A1.048,1.048,0,0,0,16.949,398.615ZM30.383,395.6a1.11,1.11,0,0,0-1.543,0l-3.087,3.013a1.048,1.048,0,0,0,0,1.507,1.11,1.11,0,0,0,1.543,0l3.087-3.013A1.048,1.048,0,0,0,30.383,395.6Z" transform="translate(-12.031 -391)"/>
</svg>
