<svg id="Integration" xmlns="http://www.w3.org/2000/svg" width="28.532" height="42.94" viewBox="0 0 28.532 42.94">
  <defs>
    <style>
      .cls-1 {
        fill: #d6d6d4;
      }

      .cls-1, .cls-2 {
        fill-rule: evenodd;
      }

      .cls-2 {
        fill: #f3654e;
      }
    </style>
  </defs>
  <path id="Integranion" class="cls-1" d="M706.127,4051.02a7.07,7.07,0,1,0,7.073,7.07A7.079,7.079,0,0,0,706.127,4051.02Zm0,12.14a5.07,5.07,0,1,1,5.072-5.07A5.075,5.075,0,0,1,706.127,4063.16Zm-8.619-25.78a1.02,1.02,0,0,0,.708-0.29l2.852-2.85a7.095,7.095,0,1,0-1.194-1.64l-3.073,3.07A1,1,0,0,0,697.508,4037.38Zm8.619-13.15a5.07,5.07,0,1,1-5.073,5.07A5.074,5.074,0,0,1,706.127,4024.23Z" transform="translate(-684.656 -4022.22)"/>
  <path id="Integranion_копия" data-name="Integranion копия" class="cls-2" d="M699.12,4051.84l-2.783-2.78a7.07,7.07,0,1,0-4.606,1.71,6.92,6.92,0,0,0,2.875-.62l3.1,3.1A1,1,0,0,0,699.12,4051.84Zm-12.462-8.15a5.073,5.073,0,1,1,5.073,5.08A5.08,5.08,0,0,1,686.658,4043.69Z" transform="translate(-684.656 -4022.22)"/>
</svg>
