<svg xmlns="http://www.w3.org/2000/svg" width="19.156" height="19.16" viewBox="0 0 19.156 19.16">
  <defs>
    <style>
      .cls-1 {
        fill: #e42248;
        fill-rule: evenodd;
      }
    </style>
  </defs>
  <path id="phone_копия" data-name="phone копия" class="cls-1" d="M756.727,4610.27c-0.393.4-.809,0.77-1.179,1.19a2.325,2.325,0,0,1-2,.75,8.208,8.208,0,0,1-3.173-.92,17.339,17.339,0,0,1-5.731-4.49,15.749,15.749,0,0,1-2.795-4.65,6.123,6.123,0,0,1-.467-2.6,2.135,2.135,0,0,1,.66-1.42c0.445-.42.86-0.86,1.3-1.29a1.239,1.239,0,0,1,1.853,0c0.356,0.35.7,0.7,1.045,1.05s0.682,0.67,1.016,1.01a1.237,1.237,0,0,1,0,1.9c-0.423.43-.845,0.86-1.283,1.27a0.276,0.276,0,0,0-.066.35,7.62,7.62,0,0,0,1.156,1.85,13.3,13.3,0,0,0,3.24,2.94c0.267,0.17.564,0.29,0.845,0.44a0.245,0.245,0,0,0,.356-0.06c0.423-.44.86-0.87,1.29-1.3a1.224,1.224,0,0,1,1.846,0c0.7,0.69,1.387,1.38,2.076,2.08A1.242,1.242,0,0,1,756.727,4610.27Zm-6.577-11.52,0.223-1.58a7.1,7.1,0,0,1,6,5.81l-1.579.27A5.509,5.509,0,0,0,750.15,4598.75Zm8.8,4.23a10.134,10.134,0,0,0-8.593-8.33l0.223-1.59a11.775,11.775,0,0,1,9.949,9.64Z" transform="translate(-741.375 -4593.06)"/>
</svg>
