<svg id="Разработка_стратегии_развития_проекта" data-name="Разработка стратегии развития проекта" xmlns="http://www.w3.org/2000/svg" width="32" height="41" viewBox="0 0 32 41">
  <defs>
    <style>
      .cls-1 {
        fill: #d6d6d4;
      }

      .cls-1, .cls-2 {
        fill-rule: evenodd;
      }

      .cls-2 {
        fill: #f3654e;
      }
    </style>
  </defs>
  <path id="STRAT" class="cls-1" d="M6.925,232.152a3.924,3.924,0,1,0,3.925,3.924A3.928,3.928,0,0,0,6.925,232.152Zm0,5.827a1.9,1.9,0,1,1,1.895-1.9A1.9,1.9,0,0,1,6.925,237.979Zm9.7-21.59a1.023,1.023,0,0,0,.719.294,1.038,1.038,0,0,0,.719-0.294,1.009,1.009,0,0,0,0-1.432l-2.115-2.1,2.115-2.1a1.015,1.015,0,1,0-1.438-1.432l-2.115,2.1-2.114-2.1a1.015,1.015,0,0,0-1.438,1.432l2.114,2.1-2.114,2.1a1.009,1.009,0,0,0,0,1.432,1.023,1.023,0,0,0,.719.294,1.038,1.038,0,0,0,.719-0.294l2.114-2.106Zm16.992,9.136a1.019,1.019,0,0,0-1.438,0l-2.114,2.1-2.114-2.1a1.019,1.019,0,0,0-1.438,0,1.008,1.008,0,0,0,0,1.431l2.114,2.106-2.114,2.1a1.008,1.008,0,0,0,0,1.431,1.019,1.019,0,0,0,.719.295,1.034,1.034,0,0,0,.719-0.295l2.114-2.105L32.18,232.6a1.02,1.02,0,0,0,.719.295,1.034,1.034,0,0,0,.719-0.295,1.008,1.008,0,0,0,0-1.431l-2.114-2.1,2.114-2.106A1.008,1.008,0,0,0,33.618,225.525Zm-12.027,5.212a1.021,1.021,0,0,0-1.438,0l-2.114,2.105-2.114-2.105a1.02,1.02,0,0,0-1.438,0,1.009,1.009,0,0,0,0,1.432l2.114,2.1-2.114,2.1a1.009,1.009,0,0,0,0,1.432,1.023,1.023,0,0,0,.719.294,1.038,1.038,0,0,0,.719-0.294l2.114-2.106,2.114,2.106a1.023,1.023,0,0,0,.719.294,1.038,1.038,0,0,0,.719-0.294,1.009,1.009,0,0,0,0-1.432l-2.114-2.1,2.114-2.1A1.024,1.024,0,0,0,21.591,230.737Zm-6.572-7.595A1.011,1.011,0,1,0,14,222.131,1.016,1.016,0,0,0,15.019,223.142ZM7.5,226.123a1.035,1.035,0,0,0,.558.168,1.011,1.011,0,1,0-.846-1.566A1,1,0,0,0,7.5,226.123Zm3.172-4.32a1,1,0,0,0-.516,1.33,1.013,1.013,0,0,0,.93.6,1.041,1.041,0,0,0,.414-0.084,1,1,0,0,0,.516-1.33A1.024,1.024,0,0,0,10.671,221.8Zm8.365-.682a1.011,1.011,0,1,1-1.015,1.01A1.012,1.012,0,0,1,19.036,221.121ZM6.925,230.072a1.009,1.009,0,1,0-.719-0.3A1.024,1.024,0,0,0,6.925,230.072ZM34.7,213.332l-3.924-3.907a1.019,1.019,0,0,0-1.438,0l-3.925,3.907a1.007,1.007,0,0,0,0,1.431,1.019,1.019,0,0,0,1.438,0l2.191-2.181v2.611a5.963,5.963,0,0,1-6,5.92,1.01,1.01,0,1,0,0,2.02,7.994,7.994,0,0,0,8.026-7.94v-2.619l2.191,2.181a1.02,1.02,0,0,0,.719.3,1.034,1.034,0,0,0,.719-0.3A1,1,0,0,0,34.7,213.332Z" transform="translate(-3 -199)"/>
  <path id="STRAT-2" data-name="STRAT" class="cls-2" d="M30.066,206.848a3.924,3.924,0,1,0-3.925-3.924A3.928,3.928,0,0,0,30.066,206.848Zm0-5.819a1.9,1.9,0,1,1-1.895,1.9A1.9,1.9,0,0,1,30.066,201.029Z" transform="translate(-3 -199)"/>
</svg>
