<svg id="Продвижение_мобильного_приложения" data-name="Продвижение мобильного приложения" xmlns="http://www.w3.org/2000/svg" width="36" height="36" viewBox="0 0 36 36">
  <defs>
    <style>
      .cls-1 {
        fill: #d6d6d4;
      }

      .cls-1, .cls-2 {
        fill-rule: evenodd;
      }

      .cls-2 {
        fill: #f3654e;
      }
    </style>
  </defs>
  <path id="Forma_1" data-name="Forma 1" class="cls-1" d="M29,536a18,18,0,1,0,18,18A18.021,18.021,0,0,0,29,536Zm0,34a16,16,0,1,1,16-16A16.018,16.018,0,0,1,29,570Z" transform="translate(-11 -536)"/>
  <path id="Forma_1_копия" data-name="Forma 1 копия" class="cls-2" d="M37.917,547.979c0-.014,0-0.028-0.006-0.042s0-.036-0.008-0.054-0.008-.033-0.012-0.049-0.007-.031-0.012-0.046-0.011-.032-0.016-0.047-0.01-.031-0.017-0.046l-0.02-.043c-0.007-.015-0.014-0.03-0.022-0.045s-0.016-.027-0.024-0.041-0.017-.029-0.026-0.043-0.022-.03-0.033-0.044l-0.026-.035a1.009,1.009,0,0,0-.14-0.139l-0.034-.026-0.044-.033-0.043-.026-0.041-.024-0.045-.022-0.043-.02-0.045-.016-0.047-.017-0.046-.012-0.049-.012-0.054-.008c-0.014,0-.028-0.005-0.042-0.006-0.033,0-.066,0-0.1,0h-6a1,1,0,0,0,0,2h3.586L29,554.586l-2.293-2.293a1,1,0,0,0-1.414,0l-5.922,5.923a1,1,0,1,0,1.414,1.414L26,554.415l2.293,2.293a0.993,0.993,0,0,0,.516.274A0.945,0.945,0,0,0,29,557a1.022,1.022,0,0,0,.191-0.019,0.993,0.993,0,0,0,.516-0.274h0l6.215-6.215v3.586a1,1,0,0,0,2,0v-6C37.922,548.046,37.92,548.012,37.917,547.979Z" transform="translate(-11 -536)"/>
</svg>
