<svg id="Support" xmlns="http://www.w3.org/2000/svg" width="41.094" height="41.09" viewBox="0 0 41.094 41.09">
  <defs>
    <style>
      .cls-1 {
        fill: #d6d6d4;
      }

      .cls-1, .cls-2 {
        fill-rule: evenodd;
      }

      .cls-2 {
        fill: #f3674d;
      }
    </style>
  </defs>
  <path id="Support-2" data-name="Support" class="cls-1" d="M996.1,4044.45a20.575,20.575,0,0,0-2.334-9.52,0.9,0.9,0,0,0,.172-0.34,0.944,0.944,0,0,0-.093-0.71,20.931,20.931,0,0,0-2.718-3.69l0.441-.45a0.924,0.924,0,0,0,0-1.31,0.936,0.936,0,0,0-1.315,0l-0.441.44a21.328,21.328,0,0,0-3.7-2.72,0.948,0.948,0,0,0-1.046.08,20.609,20.609,0,0,0-19.038,0,0.861,0.861,0,0,0-.339-0.17,0.963,0.963,0,0,0-.706.09,21.3,21.3,0,0,0-3.7,2.72l-0.442-.44a0.936,0.936,0,0,0-1.315,0,0.924,0.924,0,0,0,0,1.31l0.441,0.45a20.832,20.832,0,0,0-2.718,3.69,0.936,0.936,0,0,0,.08,1.05,20.582,20.582,0,0,0,0,19.04,0.9,0.9,0,0,0-.173.34,0.914,0.914,0,0,0,.094.7,21.006,21.006,0,0,0,2.718,3.7l-0.442.44a0.932,0.932,0,0,0,1.315,1.32l0.441-.44a21.366,21.366,0,0,0,3.7,2.72,0.964,0.964,0,0,0,.464.12,0.953,0.953,0,0,0,.583-0.2,20.607,20.607,0,0,0,19.037,0,1.025,1.025,0,0,0,.34.17,0.98,0.98,0,0,0,.24.03,0.867,0.867,0,0,0,.466-0.13,21.282,21.282,0,0,0,3.7-2.71l0.441,0.44a0.932,0.932,0,1,0,1.315-1.32l-0.441-.44a20.961,20.961,0,0,0,2.719-3.7,0.923,0.923,0,0,0-.081-1.04A20.594,20.594,0,0,0,996.1,4044.45Zm-3.918,8.53-5.531-3.19a12.324,12.324,0,0,0,0-10.68l5.53-3.19A18.7,18.7,0,0,1,992.184,4052.98Zm-16.633,1.93a10.46,10.46,0,1,1,10.46-10.46A10.47,10.47,0,0,1,975.551,4054.91Zm10.169-17.41a12.51,12.51,0,0,0-3.224-3.22l3.482-6.03a19.378,19.378,0,0,1,5.773,5.77Zm-1.64-9.68-3.193,5.53a12.281,12.281,0,0,0-10.673,0l-3.193-5.53A18.688,18.688,0,0,1,984.08,4027.82Zm-18.956.43,3.482,6.03a12.529,12.529,0,0,0-3.225,3.22l-6.032-3.48A19.351,19.351,0,0,1,965.124,4028.25Zm-6.206,7.67,5.53,3.19a12.324,12.324,0,0,0,0,10.68l-5.53,3.19A18.707,18.707,0,0,1,958.918,4035.92Zm6.463,15.47a12.413,12.413,0,0,0,3.225,3.23l-3.483,6.03a19.378,19.378,0,0,1-5.773-5.77Zm1.64,9.69,3.193-5.53a12.281,12.281,0,0,0,10.673,0l3.193,5.53A18.688,18.688,0,0,1,967.021,4061.08Zm18.957-.43-3.482-6.03a12.394,12.394,0,0,0,3.224-3.23l6.033,3.49A19.351,19.351,0,0,1,985.978,4060.65Z" transform="translate(-955 -4023.91)"/>
  <path id="Support_копия" data-name="Support копия" class="cls-2" d="M985.72,4037.5a12.51,12.51,0,0,0-3.224-3.22l3.482-6.03a19.378,19.378,0,0,1,5.773,5.77Zm0.933,1.61,5.53-3.19,1.585-.99a0.9,0.9,0,0,0,.172-0.34,0.944,0.944,0,0,0-.093-0.71,20.931,20.931,0,0,0-2.718-3.69l0.441-.45a0.924,0.924,0,0,0,0-1.31,0.936,0.936,0,0,0-1.315,0l-0.441.44a21.328,21.328,0,0,0-3.7-2.72,1.66,1.66,0,0,0-1.046.08l-0.99,1.59-3.193,5.53s-0.482,1.05-.723,1.57c0,0,1.045.72,1.484,1.03a10.622,10.622,0,0,1,2.533,2.6,10.321,10.321,0,0,1,.826,1.43Zm-16.439-5.76-3.193-5.53-0.989-1.59a0.861,0.861,0,0,0-.339-0.17,0.963,0.963,0,0,0-.706.09,21.3,21.3,0,0,0-3.7,2.72l-0.442-.44a0.936,0.936,0,0,0-1.315,0,0.924,0.924,0,0,0,0,1.31l0.441,0.45a20.832,20.832,0,0,0-2.718,3.69,1.628,1.628,0,0,0,.08,1.05l1.584,0.99,5.53,3.19s1.065,0.65,1.6.98a19.652,19.652,0,0,1,3.371-4.11,9.45,9.45,0,0,1,1.561-1.03S970.468,4033.88,970.214,4033.35Zm-5.766,16.44-5.53,3.19-1.584.99a0.9,0.9,0,0,0-.173.34,0.914,0.914,0,0,0,.094.7,21.006,21.006,0,0,0,2.718,3.7l-0.442.44a0.932,0.932,0,0,0,1.315,1.32l0.441-.44a21.366,21.366,0,0,0,3.7,2.72,0.964,0.964,0,0,0,.464.12,0.953,0.953,0,0,0,.583-0.2s0.66-1.06.989-1.59l3.193-5.53s0.518-1.12.776-1.69c0,0-1.073-.58-1.565-0.94a9.6,9.6,0,0,1-2.609-2.66,13.8,13.8,0,0,1-.791-1.49m19.05,0a9.84,9.84,0,0,1-.8,1.44,10.452,10.452,0,0,1-2.74,2.81,9.845,9.845,0,0,1-1.43.84s0.521,1.13.782,1.69l3.193,5.53,0.989,1.59a1.025,1.025,0,0,0,.34.17,0.98,0.98,0,0,0,.24.03,0.867,0.867,0,0,0,.466-0.13,21.282,21.282,0,0,0,3.7-2.71l0.441,0.44a0.932,0.932,0,1,0,1.315-1.32l-0.441-.44a20.961,20.961,0,0,0,2.719-3.7,1.61,1.61,0,0,0-.081-1.04c-0.026-.08-0.053-0.17-0.08-0.25-0.5-.25-1.5-0.74-1.5-0.74l-5.531-3.19Zm-19.951-20.52,3.482,6.03a12.529,12.529,0,0,0-3.225,3.22l-6.032-3.48A19.351,19.351,0,0,1,965.124,4028.25Zm0.257,23.14a12.413,12.413,0,0,0,3.225,3.23l-3.483,6.03a19.378,19.378,0,0,1-5.773-5.77Zm20.6,9.26-3.482-6.03a12.394,12.394,0,0,0,3.224-3.23l6.033,3.49A19.351,19.351,0,0,1,985.978,4060.65Z" transform="translate(-955 -4023.91)"/>
</svg>
