<svg id="Tech" xmlns="http://www.w3.org/2000/svg" width="44" height="44" viewBox="0 0 44 44">
  <defs>
    <style>
      .cls-1 {
        fill: #d6d6d4;
      }

      .cls-1, .cls-2 {
        fill-rule: evenodd;
      }

      .cls-2 {
        fill: #f3654e;
      }
    </style>
  </defs>
  <path id="TECH-2" data-name="TECH" class="cls-1" d="M980,3642h-2v6h2v-6m-6,0h-2v6h2v-6m13,6H965a1,1,0,0,0,0,2h22a1,1,0,0,0,0-2m-31-8a1,1,0,0,1-1-1v-5h40v4.99a1.008,1.008,0,0,1-1,1.01H956m-1-8v-22.99a1.007,1.007,0,0,1,1-1.01H994a1,1,0,0,1,1,1v23H955m39-26H956a2.8,2.8,0,0,0-1,.19,2.988,2.988,0,0,0-2,2.81v29.99a3,3,0,0,0,3,3.01h38a3.009,3.009,0,0,0,3-3.01v-29.98a3.007,3.007,0,0,0-3-3.01" transform="translate(-953 -3606)"/>
  <path id="TECH_копия" data-name="TECH копия" class="cls-2" d="M985,3613h-6v2h6v-2m-10,0H959v2h16v-2m2,6H959v2h18v-2m-10,6h-8v2h8v-2" transform="translate(-953 -3606)"/>
</svg>
