<svg id="Tz" xmlns="http://www.w3.org/2000/svg" width="38" height="40" viewBox="0 0 38 40">
  <defs>
    <style>
      .cls-1 {
        fill: #d6d6d4;
      }

      .cls-1, .cls-2 {
        fill-rule: evenodd;
      }

      .cls-2 {
        fill: #f3654e;
      }
    </style>
  </defs>
  <path id="TZ-2" data-name="TZ" class="cls-1" d="M983.5,3378h-24v2h24v-2m0,6h-24v2h24v-2m-16,6h-8v2h8v-2m-12,17a1,1,0,0,1-1-1v-29h34v28.99a1.007,1.007,0,0,1-1,1.01h-32m-1-30v-4.99a1.007,1.007,0,0,1,1-1.01h32a1,1,0,0,1,1,1.01V3377h-34m33.006-8H955.5a2.78,2.78,0,0,0-1,.19,3,3,0,0,0-2,2.82v33.98a3,3,0,0,0,2.994,3.01H987.5a3.05,3.05,0,0,0,3-3.01v-33.98a3,3,0,0,0-2.994-3.01" transform="translate(-952.5 -3369)"/>
  <path id="TZ_копия" data-name="TZ копия" class="cls-2" d="M982.5,3395a1.016,1.016,0,0,0-.707.29l-2.293,2.29-2.006,2.01-2.287-2.29a1,1,0,0,0-1.414,1.42l2.994,2.99a1.007,1.007,0,0,0,1.414,0l1.3-1.3,3.707-3.7a1,1,0,0,0-.707-1.71" transform="translate(-952.5 -3369)"/>
</svg>
