<svg id="UI_UX_дизайн" data-name="UI/UX дизайн" xmlns="http://www.w3.org/2000/svg" width="44" height="44" viewBox="0 0 44 44">
  <defs>
    <style>
      .cls-1 {
        fill: #d6d6d4;
      }

      .cls-1, .cls-2 {
        fill-rule: evenodd;
      }

      .cls-2 {
        fill: #f3654e;
      }
    </style>
  </defs>
  <path id="UI_UX" data-name="UI\UX" class="cls-1" d="M23,83.68l2.841,2.841,1.42-1.42,1.42,1.42-1.42,1.421,5.681,5.68,1.42-1.42,1.42,1.42-1.42,1.42,2.13,2.13,5.681-5.681L28.68,78l1.42-1.42-6.39-6.391-1.421,1.421L9.507,58.826,3.826,64.5l2.129,2.131,1.421-1.42L8.8,66.637l-1.42,1.42,5.681,5.682,1.42-1.421,1.42,1.421-1.42,1.42,2.13,2.13-1.42,1.421L21.579,85.1ZM9.507,55.985L45.015,91.491l-8.523,8.523L0.985,64.5Zm2.841,11.362,1.42,1.42-2.84,2.841L9.507,70.187ZM32.232,87.231l1.42,1.42-2.84,2.84-1.421-1.42Zm9.661-24.09a1,1,0,0,0-.007-1.415l-2.839-2.841a1,1,0,0,0-1.415-.007h0l-2.845,2.846,4.261,4.261ZM10.578,94.3l11.156-11,1.42-1.42,4.261-4.261,1.419-1.42,8.791-8.79-4.26-4.261-8.791,8.79-1.421,1.42-4.26,4.261-1.42,1.42L6.38,90.132c-0.893-1.049-1.324-1.517-1.324-1.517l11-11,7.1-7.1,8.82-8.819,4.238-4.237a3.008,3.008,0,0,1,4.253,0l0,0,2.84,2.84a3.011,3.011,0,0,1,.006,4.255l-2.846,2.846-0.271.271-1.148,1.15-8.79,8.79-7.1,7.1L12.062,95.813A9.611,9.611,0,0,1,10.578,94.3Z" transform="translate(-1 -56)"/>
  <path id="UX_копия" data-name="UX копия" class="cls-2" d="M9.455,95.822l-4.5-4.5L3.6,97.173l5.853-1.35h0ZM6.38,90.132l4.26,4.261m1.421,1.42-1.42,1.421L3.367,98.913A1.159,1.159,0,0,1,1.86,97.407l1.679-7.274,1.517-1.517" transform="translate(-1 -56)"/>
</svg>
