<svg id="UX_аналитика_приложения" data-name="UX аналитика приложения" xmlns="http://www.w3.org/2000/svg" width="38" height="49" viewBox="0 0 38 49">
  <defs>
    <style>
      .cls-1 {
        fill: #d6d6d4;
      }

      .cls-1, .cls-2 {
        fill-rule: evenodd;
      }

      .cls-2 {
        fill: #f3654e;
      }
    </style>
  </defs>
  <path id="Forma_1" data-name="Forma 1" class="cls-1" d="M46.225,599.306H40.39V597H23.61v2.306H17.775A4.805,4.805,0,0,0,13,604.13v37.046A4.8,4.8,0,0,0,17.775,646H46.225A4.805,4.805,0,0,0,51,641.176V604.13A4.805,4.805,0,0,0,46.225,599.306Zm-20.641-.312H38.416v2.618H25.584v-2.618Zm23.442,42.182a2.819,2.819,0,0,1-2.8,2.83H17.775a2.819,2.819,0,0,1-2.8-2.83V604.13a2.819,2.819,0,0,1,2.8-2.83H23.61v2.307H40.39V601.3h5.836a2.818,2.818,0,0,1,2.8,2.829v37.046Z" transform="translate(-13 -597)"/>
  <path id="Forma_1_копия_2" data-name="Forma 1 копия 2" class="cls-2" d="M40.58,619.516l-1.026,1.576a0.549,0.549,0,0,1-.917.008l-0.029-.042a2.514,2.514,0,0,0-4.376.367l-0.548,1.194a0.55,0.55,0,0,1-1.036-.1l-1.193-4.752a2.5,2.5,0,0,0-2.448-1.925H28.993a2.5,2.5,0,0,0-2.442,1.95l-1.076,4.481a0.55,0.55,0,0,1-1.043.091L23.371,619.9a2.525,2.525,0,0,0-2.317-1.535H18.209v2h2.845a0.551,0.551,0,0,1,.506.335l1.061,2.465a2.518,2.518,0,0,0,4.771-.416l1.076-4.48a0.551,0.551,0,0,1,1.072-.006l1.193,4.752a2.508,2.508,0,0,0,2.214,1.914c0.082,0.007.164,0.011,0.244,0.011a2.493,2.493,0,0,0,2.282-1.479l0.548-1.194a0.549,0.549,0,0,1,.956-0.08l0.029,0.042a2.514,2.514,0,0,0,2.085,1.111h0.023a2.516,2.516,0,0,0,2.087-1.149l1.027-1.575a0.549,0.549,0,0,1,.461-0.251h3.1v-2h-3.1A2.516,2.516,0,0,0,40.58,619.516ZM18.209,633.133H29.354v1.994H18.209v-1.994Zm0,4.875H40.5V640H18.209v-1.994Z" transform="translate(-13 -597)"/>
</svg>
