<svg id="UX" xmlns="http://www.w3.org/2000/svg" width="43.812" height="43.82" viewBox="0 0 43.812 43.82">
  <defs>
    <style>
      .cls-1 {
        fill: #d6d6d4;
      }

      .cls-1, .cls-2 {
        fill-rule: evenodd;
      }

      .cls-2 {
        fill: #f3654e;
      }
    </style>
  </defs>
  <path id="UI_UX" data-name="UI\UX" class="cls-1" d="M705.5,3633.66l2.829,2.83,1.414-1.42,1.414,1.42-1.414,1.41,5.657,5.66,1.414-1.42,1.414,1.42-1.414,1.41,2.121,2.12,5.657-5.66L711.156,3628l1.414-1.42-6.363-6.36-1.415,1.42-12.728-12.73-5.656,5.65,2.12,2.13,1.415-1.42,1.414,1.42-1.414,1.41,5.657,5.66,1.414-1.42,1.414,1.42-1.414,1.41,2.121,2.12-1.414,1.42,6.364,6.36Zm-13.435-27.58,35.357,35.35-8.487,8.49-35.355-35.36Zm2.829,11.31,1.414,1.42-2.828,2.83-1.415-1.42Zm19.8,19.8,1.414,1.42-2.828,2.82-1.415-1.41Zm9.62-23.99a0.99,0.99,0,0,0-.006-1.4l-2.828-2.83a1,1,0,0,0-1.409-.01h0l-2.833,2.84,4.243,4.24Zm-31.181,31.03,11.108-10.95,1.414-1.42,4.243-4.24,1.413-1.41,8.754-8.76-4.242-4.24-8.753,8.75-1.415,1.42-4.242,4.24L700,3629.04l-11.046,11.04c-0.889-1.04-1.318-1.51-1.318-1.51,3.318-3.32,10.949-10.95,10.949-10.95l7.07-7.07s4.986-4.99,8.783-8.78c2.335-2.34,4.22-4.22,4.22-4.22a2.994,2.994,0,0,1,4.235,0h0l2.828,2.83a3,3,0,0,1,0,4.24l-2.833,2.83-0.27.27-1.144,1.15-8.753,8.75-7.072,7.07-11.045,11.05A9.434,9.434,0,0,1,693.131,3644.23Z" transform="translate(-683.594 -3606.09)"/>
  <path id="UX_копия" data-name="UX копия" class="cls-2" d="M692.013,3645.75l-4.484-4.49-1.345,5.83,5.829-1.34h0Zm-3.062-5.67,4.242,4.24m1.415,1.42-1.414,1.41-7.244,1.67a1.153,1.153,0,0,1-1.5-1.5l1.672-7.24s0.589-.59,1.511-1.51" transform="translate(-683.594 -3606.09)"/>
</svg>
